<svg xmlns="http://www.w3.org/2000/svg" viewBox="0 0 32 32"><path fill="#E20025" fill-rule="evenodd" d="M30.44 12.57a5.5 5.5 0 0 0-9.31 3.9c0 .54.23 1.57.23 2.01 0 2.34-1.9 4.24-4.24 4.24h-4.54c-.87 0-1.58.7-1.58 1.58v6.12c0 .87.7 1.58 1.58 1.58h6.12c.87 0 1.58-.7 1.58-1.57v-4.55c0-2.34 1.9-4.24 4.23-4.24h.01c.44 0 1.47.24 2 .24a5.5 5.5 0 0 0 3.92-9.31zm-11.06-3c.9 0 1.62-.73 1.62-1.62V1.62C21 .72 20.27 0 19.38 0h-6.32c-.9 0-1.63.73-1.63 1.62v4.85c0 1.5-1.15 2.8-1.64 3.31a5.48 5.48 0 0 1-3.96 1.6H0V21h9.61v-5.83a5.5 5.5 0 0 1 1.6-3.96c.52-.5 1.81-1.64 3.32-1.64h4.85z"/></svg>